<svg width="14" height="20" viewBox="0 0 14 20" fill="none" xmlns="http://www.w3.org/2000/svg">
<path d="M0.0297852 4.4248C0.0297852 3.96094 0.0989583 3.52148 0.237305 3.10645C0.383789 2.68327 0.595378 2.31299 0.87207 1.99561C1.14062 1.67822 1.47835 1.43001 1.88525 1.25098C2.29215 1.0638 2.76009 0.970215 3.28906 0.970215C3.82617 0.970215 4.29818 1.0638 4.70508 1.25098C5.12012 1.43001 5.46598 1.67822 5.74268 1.99561C6.01123 2.31299 6.21468 2.68327 6.35303 3.10645C6.49951 3.52148 6.57275 3.96094 6.57275 4.4248V5.36475C6.57275 5.82861 6.49951 6.26807 6.35303 6.68311C6.21468 7.09814 6.01123 7.46029 5.74268 7.76953C5.46598 8.08691 5.12419 8.33919 4.71729 8.52637C4.31038 8.7054 3.84245 8.79492 3.31348 8.79492C2.78451 8.79492 2.3125 8.7054 1.89746 8.52637C1.49056 8.33919 1.14876 8.08691 0.87207 7.76953C0.595378 7.46029 0.383789 7.09814 0.237305 6.68311C0.0989583 6.26807 0.0297852 5.82861 0.0297852 5.36475V4.4248ZM1.71436 5.36475C1.71436 5.61702 1.74284 5.86117 1.7998 6.09717C1.85677 6.32503 1.95036 6.52848 2.08057 6.70752C2.21077 6.89469 2.37354 7.04525 2.56885 7.15918C2.7723 7.26497 3.02051 7.31787 3.31348 7.31787C3.59831 7.31787 3.83838 7.26497 4.03369 7.15918C4.23714 7.04525 4.3999 6.89469 4.52197 6.70752C4.64404 6.52848 4.73356 6.32503 4.79053 6.09717C4.85563 5.86117 4.88818 5.61702 4.88818 5.36475V4.4248C4.88818 4.17253 4.85563 3.92839 4.79053 3.69238C4.73356 3.44824 4.64404 3.23258 4.52197 3.04541C4.39176 2.86637 4.22493 2.72396 4.02148 2.61816C3.82617 2.50423 3.58203 2.44727 3.28906 2.44727C3.00423 2.44727 2.76009 2.50423 2.55664 2.61816C2.36133 2.72396 2.20264 2.86637 2.08057 3.04541C1.95036 3.23258 1.85677 3.44824 1.7998 3.69238C1.74284 3.92839 1.71436 4.17253 1.71436 4.4248V5.36475ZM7.36621 14.874C7.36621 14.4102 7.43538 13.9707 7.57373 13.5557C7.72021 13.1406 7.9318 12.7744 8.2085 12.457C8.48519 12.1396 8.82699 11.8914 9.23389 11.7124C9.64079 11.5252 10.1087 11.4316 10.6377 11.4316C11.1748 11.4316 11.6468 11.5252 12.0537 11.7124C12.4606 11.8914 12.8024 12.1396 13.0791 12.457C13.3558 12.7744 13.5633 13.1406 13.7017 13.5557C13.8481 13.9707 13.9214 14.4102 13.9214 14.874V15.8262C13.9214 16.29 13.8481 16.7295 13.7017 17.1445C13.5633 17.5596 13.3558 17.9217 13.0791 18.231C12.8024 18.5483 12.4606 18.8006 12.0537 18.9878C11.6549 19.1668 11.1911 19.2563 10.6621 19.2563C10.125 19.2563 9.64893 19.1668 9.23389 18.9878C8.82699 18.8006 8.48519 18.5483 8.2085 18.231C7.9318 17.9217 7.72021 17.5596 7.57373 17.1445C7.43538 16.7295 7.36621 16.29 7.36621 15.8262V14.874ZM9.05078 15.8262C9.05078 16.0785 9.07926 16.3226 9.13623 16.5586C9.20133 16.7946 9.29899 17.0021 9.4292 17.1812C9.55127 17.3683 9.71403 17.5189 9.91748 17.6328C10.1209 17.7386 10.3691 17.7915 10.6621 17.7915C10.9469 17.7915 11.187 17.7386 11.3823 17.6328C11.5858 17.5189 11.7485 17.3683 11.8706 17.1812C11.9927 17.0021 12.0822 16.7946 12.1392 16.5586C12.1961 16.3226 12.2246 16.0785 12.2246 15.8262V14.874C12.2246 14.6217 12.1961 14.3776 12.1392 14.1416C12.0822 13.9056 11.9927 13.694 11.8706 13.5068C11.7404 13.3278 11.5736 13.1854 11.3701 13.0796C11.1667 12.9657 10.9225 12.9087 10.6377 12.9087C10.3447 12.9087 10.0965 12.9657 9.89307 13.0796C9.69775 13.1854 9.53906 13.3278 9.41699 13.5068C9.28678 13.694 9.1932 13.9056 9.13623 14.1416C9.07926 14.3776 9.05078 14.6217 9.05078 14.874V15.8262ZM4.35107 16.7051L2.99609 15.9482L9.91748 3.28955L11.2725 4.04639L4.35107 16.7051Z" fill="white"/>
</svg>
