<svg width="14" height="20" viewBox="0 0 14 20" fill="none" xmlns="http://www.w3.org/2000/svg">
<path d="M13.1279 13.6533C13.0221 14.4753 12.8105 15.2321 12.4932 15.9238C12.1758 16.6074 11.7648 17.1934 11.2603 17.6816C10.7476 18.1781 10.1413 18.5646 9.44141 18.8413C8.74967 19.1099 7.97656 19.2441 7.12207 19.2441C6.38965 19.2441 5.72233 19.1424 5.12012 18.939C4.52604 18.7274 3.99707 18.4385 3.5332 18.0723C3.0612 17.7061 2.6543 17.2747 2.3125 16.7783C1.97884 16.2819 1.70215 15.7407 1.48242 15.1548C1.25456 14.5688 1.08366 13.9544 0.969727 13.3115C0.863932 12.6686 0.806966 12.0176 0.798828 11.3584V8.88037C0.806966 8.22119 0.863932 7.57015 0.969727 6.92725C1.08366 6.28434 1.25456 5.66992 1.48242 5.08398C1.70215 4.49805 1.97884 3.95687 2.3125 3.46045C2.6543 2.95589 3.0612 2.52051 3.5332 2.1543C3.99707 1.78809 4.52604 1.50326 5.12012 1.2998C5.71419 1.08822 6.38151 0.982422 7.12207 0.982422C8.00911 0.982422 8.80257 1.12077 9.50244 1.39746C10.2023 1.66602 10.8045 2.0485 11.3091 2.54492C11.8136 3.04948 12.2165 3.65169 12.5176 4.35156C12.8268 5.05143 13.0303 5.82454 13.1279 6.6709H10.8696C10.7964 6.13379 10.6702 5.6333 10.4912 5.16943C10.3122 4.70557 10.0721 4.29867 9.771 3.94873C9.46989 3.5988 9.09961 3.32617 8.66016 3.13086C8.22884 2.92741 7.71615 2.82568 7.12207 2.82568C6.58496 2.82568 6.10889 2.9152 5.69385 3.09424C5.28695 3.26514 4.93701 3.50114 4.64404 3.80225C4.34294 4.10335 4.09066 4.45329 3.88721 4.85205C3.69189 5.25081 3.5332 5.67399 3.41113 6.12158C3.28906 6.56917 3.19954 7.02897 3.14258 7.50098C3.09375 7.96484 3.06934 8.4165 3.06934 8.85596V11.3584C3.06934 11.7979 3.09375 12.2536 3.14258 12.7256C3.19954 13.1895 3.28906 13.6452 3.41113 14.0928C3.5332 14.5485 3.69189 14.9757 3.88721 15.3745C4.08252 15.7733 4.33073 16.1232 4.63184 16.4243C4.93294 16.7336 5.28695 16.9777 5.69385 17.1567C6.10075 17.3276 6.57682 17.4131 7.12207 17.4131C7.71615 17.4131 8.22884 17.3195 8.66016 17.1323C9.09961 16.9451 9.46989 16.6807 9.771 16.3389C10.0721 16.0052 10.3122 15.6105 10.4912 15.1548C10.6702 14.6909 10.7964 14.1904 10.8696 13.6533H13.1279Z" fill="white"/>
</svg>
