<svg width="16" height="15" viewBox="0 0 16 15" fill="none" xmlns="http://www.w3.org/2000/svg">
<path d="M15.7812 7.78125H0.1875V6.96875H15.7812V7.78125ZM7.3125 1.64062C7.3125 1.41146 7.39583 1.20833 7.5625 1.03125C7.73958 0.854167 7.94271 0.765625 8.17188 0.765625C8.40104 0.765625 8.60417 0.854167 8.78125 1.03125C8.95833 1.20833 9.04688 1.41146 9.04688 1.64062C9.04688 1.86979 8.95833 2.07292 8.78125 2.25C8.60417 2.41667 8.40104 2.5 8.17188 2.5C7.94271 2.5 7.73958 2.41667 7.5625 2.25C7.39583 2.07292 7.3125 1.86979 7.3125 1.64062ZM7.3125 13.7969C7.3125 13.5677 7.39583 13.3646 7.5625 13.1875C7.73958 13.0104 7.94271 12.9219 8.17188 12.9219C8.40104 12.9219 8.60417 13.0104 8.78125 13.1875C8.95833 13.3646 9.04688 13.5677 9.04688 13.7969C9.04688 14.026 8.95833 14.2292 8.78125 14.4062C8.60417 14.5729 8.40104 14.6562 8.17188 14.6562C7.94271 14.6562 7.73958 14.5729 7.5625 14.4062C7.39583 14.2292 7.3125 14.026 7.3125 13.7969Z" fill="white"/>
</svg>
